<svg width="34" height="15" viewBox="0 0 34 15" fill="none" xmlns="http://www.w3.org/2000/svg">
<path d="M2.37 7.43C2.37 7.84 2.44 8.19 2.58 8.48C2.72 8.77 2.915 9.01 3.165 9.2C3.415 9.38 3.7 9.515 4.02 9.605C4.35 9.685 4.705 9.725 5.085 9.725C5.495 9.725 5.845 9.68 6.135 9.59C6.425 9.49 6.66 9.365 6.84 9.215C7.02 9.065 7.15 8.895 7.23 8.705C7.31 8.505 7.35 8.305 7.35 8.105C7.35 7.695 7.255 7.395 7.065 7.205C6.885 7.005 6.685 6.865 6.465 6.785C6.085 6.645 5.64 6.515 5.13 6.395C4.63 6.265 4.01 6.1 3.27 5.9C2.81 5.78 2.425 5.625 2.115 5.435C1.815 5.235 1.575 5.015 1.395 4.775C1.215 4.535 1.085 4.28 1.005 4.01C0.935 3.74 0.9 3.465 0.9 3.185C0.9 2.645 1.01 2.18 1.23 1.79C1.46 1.39 1.76 1.06 2.13 0.8C2.5 0.54 2.92 0.349999 3.39 0.229999C3.86 0.0999997 4.335 0.0349999 4.815 0.0349999C5.375 0.0349999 5.9 0.11 6.39 0.26C6.89 0.4 7.325 0.615 7.695 0.904999C8.075 1.195 8.375 1.555 8.595 1.985C8.815 2.405 8.925 2.895 8.925 3.455H7.05C7 2.765 6.765 2.28 6.345 2C5.925 1.71 5.39 1.565 4.74 1.565C4.52 1.565 4.295 1.59 4.065 1.64C3.835 1.68 3.625 1.755 3.435 1.865C3.245 1.965 3.085 2.105 2.955 2.285C2.835 2.465 2.775 2.69 2.775 2.96C2.775 3.34 2.89 3.64 3.12 3.86C3.36 4.07 3.67 4.23 4.05 4.34C4.09 4.35 4.245 4.395 4.515 4.475C4.795 4.545 5.105 4.625 5.445 4.715C5.785 4.805 6.115 4.895 6.435 4.985C6.765 5.065 7 5.125 7.14 5.165C7.49 5.275 7.795 5.425 8.055 5.615C8.315 5.805 8.53 6.025 8.7 6.275C8.88 6.515 9.01 6.775 9.09 7.055C9.18 7.335 9.225 7.615 9.225 7.895C9.225 8.495 9.1 9.01 8.85 9.44C8.61 9.86 8.29 10.205 7.89 10.475C7.49 10.745 7.035 10.94 6.525 11.06C6.015 11.19 5.495 11.255 4.965 11.255C4.355 11.255 3.78 11.18 3.24 11.03C2.7 10.88 2.23 10.65 1.83 10.34C1.43 10.03 1.11 9.635 0.87 9.155C0.63 8.665 0.505 8.09 0.495 7.43H2.37ZM17.1216 9.275C17.1216 9.485 17.1466 9.635 17.1966 9.725C17.2566 9.815 17.3666 9.86 17.5266 9.86C17.5766 9.86 17.6366 9.86 17.7066 9.86C17.7766 9.86 17.8566 9.85 17.9466 9.83V11.015C17.8866 11.035 17.8066 11.055 17.7066 11.075C17.6166 11.105 17.5216 11.13 17.4216 11.15C17.3216 11.17 17.2216 11.185 17.1216 11.195C17.0216 11.205 16.9366 11.21 16.8666 11.21C16.5166 11.21 16.2266 11.14 15.9966 11C15.7666 10.86 15.6166 10.615 15.5466 10.265C15.2066 10.595 14.7866 10.835 14.2866 10.985C13.7966 11.135 13.3216 11.21 12.8616 11.21C12.5116 11.21 12.1766 11.16 11.8566 11.06C11.5366 10.97 11.2516 10.835 11.0016 10.655C10.7616 10.465 10.5666 10.23 10.4166 9.95C10.2766 9.66 10.2066 9.325 10.2066 8.945C10.2066 8.465 10.2916 8.075 10.4616 7.775C10.6416 7.475 10.8716 7.24 11.1516 7.07C11.4416 6.9 11.7616 6.78 12.1116 6.71C12.4716 6.63 12.8316 6.57 13.1916 6.53C13.5016 6.47 13.7966 6.43 14.0766 6.41C14.3566 6.38 14.6016 6.335 14.8116 6.275C15.0316 6.215 15.2016 6.125 15.3216 6.005C15.4516 5.875 15.5166 5.685 15.5166 5.435C15.5166 5.215 15.4616 5.035 15.3516 4.895C15.2516 4.755 15.1216 4.65 14.9616 4.58C14.8116 4.5 14.6416 4.45 14.4516 4.43C14.2616 4.4 14.0816 4.385 13.9116 4.385C13.4316 4.385 13.0366 4.485 12.7266 4.685C12.4166 4.885 12.2416 5.195 12.2016 5.615H10.4916C10.5216 5.115 10.6416 4.7 10.8516 4.37C11.0616 4.04 11.3266 3.775 11.6466 3.575C11.9766 3.375 12.3466 3.235 12.7566 3.155C13.1666 3.075 13.5866 3.035 14.0166 3.035C14.3966 3.035 14.7716 3.075 15.1416 3.155C15.5116 3.235 15.8416 3.365 16.1316 3.545C16.4316 3.725 16.6716 3.96 16.8516 4.25C17.0316 4.53 17.1216 4.875 17.1216 5.285V9.275ZM15.4116 7.115C15.1516 7.285 14.8316 7.39 14.4516 7.43C14.0716 7.46 13.6916 7.51 13.3116 7.58C13.1316 7.61 12.9566 7.655 12.7866 7.715C12.6166 7.765 12.4666 7.84 12.3366 7.94C12.2066 8.03 12.1016 8.155 12.0216 8.315C11.9516 8.465 11.9166 8.65 11.9166 8.87C11.9166 9.06 11.9716 9.22 12.0816 9.35C12.1916 9.48 12.3216 9.585 12.4716 9.665C12.6316 9.735 12.8016 9.785 12.9816 9.815C13.1716 9.845 13.3416 9.86 13.4916 9.86C13.6816 9.86 13.8866 9.835 14.1066 9.785C14.3266 9.735 14.5316 9.65 14.7216 9.53C14.9216 9.41 15.0866 9.26 15.2166 9.08C15.3466 8.89 15.4116 8.66 15.4116 8.39V7.115ZM19.0065 0.289999H20.7165V11H19.0065V0.289999ZM22.6247 0.289999H24.3347V11H22.6247V0.289999ZM25.3429 3.245H27.2179L29.2429 9.035H29.2729L31.2379 3.245H33.0229L30.0079 11.42C29.8679 11.77 29.7279 12.105 29.5879 12.425C29.4579 12.745 29.2929 13.025 29.0929 13.265C28.9029 13.515 28.6629 13.71 28.3729 13.85C28.0829 14 27.7129 14.075 27.2629 14.075C26.8629 14.075 26.4679 14.045 26.0779 13.985V12.545C26.2179 12.565 26.3529 12.585 26.4829 12.605C26.6129 12.635 26.7479 12.65 26.8879 12.65C27.0879 12.65 27.2529 12.625 27.3829 12.575C27.5129 12.525 27.6179 12.45 27.6979 12.35C27.7879 12.26 27.8629 12.15 27.9229 12.02C27.9829 11.89 28.0379 11.74 28.0879 11.57L28.2829 10.97L25.3429 3.245Z" fill="#080808"/>
</svg>
